# File created by Blade
# Date/Time:  Thu Jan 22 16:31:19 2015
#---------------------------------------------------------
:version 1.10
:name HOM
:units
  mass 1.0
  length 1.000000
  angle deg
:documentation
     Acclaim Skeleton File
:root
   axis xyz
   order TX TY TZ RX RY RZ
   position 0.000000 0.000000 0.000000
   orientation 0 0 0
:bonedata
   begin
      id 1
      name RightUpLeg_dum
      direction -1.000000 0.000000 0.000000
      length 3.766986
      axis 0.0 0.0 0.0 xyz
   end
   begin
      id 2
      name LeftUpLeg_dum
      direction 1.000000 0.000000 0.000000
      length 3.766986
      axis 0.0 0.0 0.0 xyz
   end
   begin
      id 3
      name Spine_dum
      direction 0.000000 1.000000 0.000000
      length 7.779697
      axis 0.0 0.0 0.0 xyz
   end
   begin
      id 4
      name RightUpLeg
      direction 0.000000 -1.000000 0.000000
      length 18.017682
      axis 0.0 0.0 0.0 xyz
      dof rx ry rz
   end
   begin
      id 5
      name RightLeg
      direction 0.000000 -1.000000 0.000000
      length 16.881075
      axis 0.0 0.0 0.0 xyz
      dof rx ry rz
   end
   begin
      id 6
      name RightFoot
      direction 0.000000 -0.258819 0.965926
      length 5.770812
      axis 15.0 0.0 0.0 xyz
      dof rx ry rz
   end
   begin
      id 7
      name RightToeBase
      direction 0.000000 0.000000 1.000000
      length 2.952750
      axis 0.0 0.0 0.0 xyz
      dof rx ry rz
   end
   begin
      id 8
      name LeftUpLeg
      direction 0.000000 -1.000000 0.000000
      length 18.017682
      axis 0.0 0.0 0.0 xyz
      dof rx ry rz
   end
   begin
      id 9
      name LeftLeg
      direction 0.000000 -1.000000 0.000000
      length 16.881075
      axis 0.0 0.0 0.0 xyz
      dof rx ry rz
   end
   begin
      id 10
      name LeftFoot
      direction 0.000000 -0.258819 0.965926
      length 5.770812
      axis 15.0 0.0 0.0 xyz
      dof rx ry rz
   end
   begin
      id 11
      name LeftToeBase
      direction 0.000000 0.000000 1.000000
      length 2.952750
      axis 0.0 0.0 0.0 xyz
      dof rx ry rz
   end
   begin
      id 12
      name Spine
      direction 0.000000 1.000000 0.000000
      length 0.000000
      axis 0.0 0.0 0.0 xyz
      dof rx ry rz
   end
   begin
      id 13
      name Spine_dum1
      direction 0.000000 1.000000 0.000000
      length 10.941760
      axis 0.0 0.0 0.0 xyz
   end
   begin
      id 14
      name Spine_dum2
      direction 0.000000 1.000000 0.000000
      length 10.941760
      axis 0.0 0.0 0.0 xyz
   end
   begin
      id 15
      name Spine_dum3
      direction 0.000000 1.000000 0.000000
      length 16.646042
      axis 0.0 0.0 0.0 xyz
   end
   begin
      id 16
      name RightShoulder
      direction -1.000000 0.000000 0.000000
      length 7.708937
      axis 0.0 0.0 90.0 xyz
      dof rx ry rz
   end
   begin
      id 17
      name RightArm
      direction -1.000000 0.000000 0.000000
      length 11.521345
      axis 0.0 0.0 90.0 xyz
      dof rx ry rz
   end
   begin
      id 18
      name RightForeArm
      direction -1.000000 0.000000 0.000000
      length 10.175898
      axis 0.0 0.0 90.0 xyz
      dof ry rz rx
   end
   begin
      id 19
      name RightHand
      direction -1.000000 0.000000 0.000000
      length 0.000000
      axis 0.0 0.0 90.0 xyz
      dof rx ry rz
   end
   begin
      id 20
      name RightHand_dum1
      direction -1.000000 0.000000 0.000000
      length 3.937000
      axis 0.0 0.0 90.0 xyz
   end
   begin
      id 21
      name RightHand_dum2
      direction 0.000000 0.000000 0.000000
      length 0.000000
      axis 0.0 0.0 90.0 xyz
   end
   begin
      id 22
      name RightHandThumb1
      direction 0.000000 0.000000 1.000000
      length 3.937000
      axis 0.0 0.0 90.0 xyz
      dof rx rz ry
   end
   begin
      id 23
      name LeftShoulder
      direction 1.000000 0.000000 0.000000
      length 7.708937
      axis 0.0 0.0 -90.0 xyz
      dof rx ry rz
   end
   begin
      id 24
      name LeftArm
      direction 1.000000 0.000000 0.000000
      length 11.521345
      axis 0.0 0.0 -90.0 xyz
      dof rx ry rz
   end
   begin
      id 25
      name LeftForeArm
      direction 1.000000 0.000000 0.000000
      length 10.175898
      axis 0.0 0.0 -90.0 xyz
      dof ry rz rx
   end
   begin
      id 26
      name LeftHand
      direction 1.000000 0.000000 0.000000
      length 0.000000
      axis 0.0 0.0 -90.0 xyz
      dof rx ry rz
   end
   begin
      id 27
      name LeftHand_dum1
      direction 1.000000 0.000000 0.000000
      length 3.937000
      axis 0.0 0.0 -90.0 xyz
   end
   begin
      id 28
      name LeftHand_dum2
      direction 0.000000 0.000000 0.000000
      length 0.000000
      axis 0.0 0.0 -90.0 xyz
   end
   begin
      id 29
      name LeftHandThumb1
      direction 0.000000 0.000000 1.000000
      length 3.937000
      axis 0.0 0.0 -90.0 xyz
      dof rx rz ry
   end
   begin
      id 30
      name Head
      direction 0.000000 1.000000 0.000000
      length 4.527550
      axis 0.0 0.0 0.0 xyz
      dof rx ry rz
   end
:hierarchy
   begin
      root RightUpLeg_dum LeftUpLeg_dum Spine_dum
      RightUpLeg_dum RightUpLeg
      LeftUpLeg_dum LeftUpLeg
      Spine_dum Spine
      RightUpLeg RightLeg
      RightLeg RightFoot
      RightFoot RightToeBase
      LeftUpLeg LeftLeg
      LeftLeg LeftFoot
      LeftFoot LeftToeBase
      Spine Spine_dum1 Spine_dum2 Spine_dum3
      Spine_dum1 RightShoulder
      Spine_dum2 LeftShoulder
      Spine_dum3 Head
      RightShoulder RightArm
      RightArm RightForeArm
      RightForeArm RightHand
      RightHand RightHand_dum1 RightHand_dum2
      RightHand_dum2 RightHandThumb1
      LeftShoulder LeftArm
      LeftArm LeftForeArm
      LeftForeArm LeftHand
      LeftHand LeftHand_dum1 LeftHand_dum2
      LeftHand_dum2 LeftHandThumb1
   end

# File created by Blade
# Date/Time:  Thu Jan 22 16:31:11 2015
# Frame Rate: 120.000 fps
#------------------------------------------------------
:FULLY-SPECIFIED
:DEGREES
80
root 1.428145 37.154363 3.310278 -4.615399 2.966731 3.834421
RightUpLeg 13.549626 -1.859160 -7.846025
RightLeg -7.174988 -0.000000 0.000000
RightFoot -12.311261 -22.138269 19.141614
RightToeBase 11.359749 -0.000000 -0.000000
LeftUpLeg -6.559279 8.983447 1.649547
LeftLeg 28.021934 -0.000000 -0.000000
LeftFoot -7.866497 0.035916 -22.647008
LeftToeBase 3.205382 -0.000000 -0.000000
Spine 14.493025 -6.385411 5.801371
RightShoulder -4.911962 -11.486525 -29.468122
RightArm 6.875870 30.478779 30.704295
RightForeArm 10.138199 -0.000000 20.803152
RightHand 4.804185 -0.000000 -4.753292
RightHandThumb1 -24.326973 -0.000000 -32.862282
LeftShoulder -24.405074 34.026756 10.602942
LeftArm 53.106535 -44.684492 -67.224604
LeftForeArm 39.556470 0.000000 8.035335
LeftHand -17.026661 -0.000000 -4.713486
LeftHandThumb1 -26.253704 0.000000 33.147579
Head -3.021735 19.356483 -9.962526
81
root 1.456558 37.156295 3.281435 -4.669612 3.266628 4.010057
RightUpLeg 13.710678 -1.994286 -8.081161
RightLeg -7.302705 -0.000000 0.000000
RightFoot -12.295926 -22.236385 19.136996
RightToeBase 11.226036 -0.000000 -0.000000
LeftUpLeg -7.066816 9.258577 1.702635
LeftLeg 28.961524 -0.000000 -0.000000
LeftFoot -7.183511 -1.388588 -24.274042
LeftToeBase 4.292578 -0.000000 -0.000000
Spine 14.716367 -6.527356 5.832583
RightShoulder -4.903085 -11.607872 -29.398769
RightArm 6.950107 30.480088 30.949909
RightForeArm 10.026356 -0.000000 20.846824
RightHand 4.840383 -0.000000 -4.947464
RightHandThumb1 -24.326973 -0.000000 -32.862282
LeftShoulder -24.305245 33.998858 10.591070
LeftArm 53.207140 -44.460228 -67.442285
LeftForeArm 39.447582 0.000000 8.079345
LeftHand -16.960581 -0.000000 -4.640181
LeftHandThumb1 -26.253704 0.000000 33.147579
Head -2.786234 19.426903 -10.038269
82
root 1.486178 37.156664 3.256669 -4.739316 3.576486 4.187791
RightUpLeg 13.923387 -2.070107 -8.311546
RightLeg -7.481968 -0.000000 0.000000
RightFoot -12.292974 -22.398266 19.178460
RightToeBase 11.066624 -0.000000 -0.000000
LeftUpLeg -7.517622 9.409105 1.776518
LeftLeg 29.827055 -0.000000 -0.000000
LeftFoot -6.514092 -2.828392 -26.136302
LeftToeBase 5.919625 -0.000000 -0.000000
Spine 14.935107 -6.670212 5.852230
RightShoulder -4.891414 -11.786811 -29.315208
RightArm 7.036894 30.541538 31.230220
RightForeArm 9.819237 -0.000000 20.957223
RightHand 4.820686 -0.000000 -5.048752
RightHandThumb1 -24.326973 -0.000000 -32.862282
LeftShoulder -24.212295 33.993852 10.560302
LeftArm 53.303463 -44.209919 -67.583445
LeftForeArm 39.431129 -0.000000 8.119230
LeftHand -17.032868 -0.000000 -4.761305
LeftHandThumb1 -26.253704 0.000000 33.147579
Head -2.534336 19.530595 -10.087584
83
root 1.517357 37.156861 3.235490 -4.825088 3.879344 4.347747
RightUpLeg 14.144096 -2.143865 -8.526181
RightLeg -7.637515 -0.000000 0.000000
RightFoot -12.303176 -22.553151 19.235501
RightToeBase 11.003748 -0.000000 -0.000000
LeftUpLeg -7.896360 9.567990 1.896012
LeftLeg 30.601094 -0.000000 -0.000000
LeftFoot -5.625728 -4.294172 -28.033093
LeftToeBase 6.757027 -0.000000 -0.000000
Spine 15.163980 -6.807251 5.869552
RightShoulder -4.884956 -11.894262 -29.221375
RightArm 7.116352 30.357809 31.461742
RightForeArm 9.864789 0.000000 20.993713
RightHand 4.862825 -0.000000 -5.244681
RightHandThumb1 -24.326973 -0.000000 -32.862282
LeftShoulder -24.158803 33.993000 10.531600
LeftArm 53.530063 -43.990684 -67.852192
LeftForeArm 39.511769 0.000000 8.132983
LeftHand -17.072490 -0.000000 -4.823430
LeftHandThumb1 -26.253704 0.000000 33.147579
Head -2.267012 19.646660 -10.075175
84
root 1.549194 37.156200 3.215579 -4.909959 4.192695 4.487787
RightUpLeg 14.357104 -2.250205 -8.725029
RightLeg -7.777623 -0.000000 0.000000
RightFoot -12.347084 -22.694018 19.371996
RightToeBase 11.002498 -0.000000 -0.000000
LeftUpLeg -8.241933 9.616641 2.055221
LeftLeg 31.331585 -0.000000 -0.000000
LeftFoot -4.650217 -5.710591 -30.242064
LeftToeBase 7.457986 -0.000000 -0.000000
Spine 15.375282 -6.967394 5.911849
RightShoulder -4.865774 -12.081449 -29.156710
RightArm 7.210337 30.390642 31.817345
RightForeArm 9.694764 -0.000000 21.174491
RightHand 4.917708 0.000000 -5.303805
RightHandThumb1 -24.326973 -0.000000 -32.862282
LeftShoulder -24.059831 33.926863 10.524057
LeftArm 53.596908 -43.760357 -67.973195
LeftForeArm 39.551907 -0.000000 8.140938
LeftHand -16.996020 -0.000000 -4.933197
LeftHandThumb1 -26.253704 0.000000 33.147579
Head -1.966317 19.721758 -10.064165
85
root 1.581831 37.154186 3.200111 -5.016694 4.506482 4.608131
RightUpLeg 14.590737 -2.336982 -8.910100
RightLeg -7.887806 -0.000000 0.000000
RightFoot -12.373857 -22.809507 19.459276
RightToeBase 10.983586 -0.000000 -0.000000
LeftUpLeg -8.500615 9.572757 2.262168
LeftLeg 31.947777 -0.000000 -0.000000
LeftFoot -3.521049 -7.093408 -32.282134
LeftToeBase 6.712740 -0.000000 -0.000000
Spine 15.598219 -7.135258 5.947628
RightShoulder -4.835955 -12.165826 -29.068669
RightArm 7.269389 30.212854 32.115985
RightForeArm 9.690958 0.000000 21.314674
RightHand 4.960005 -0.000000 -5.540073
RightHandThumb1 -24.326973 -0.000000 -32.862282
LeftShoulder -23.975261 33.875513 10.523133
LeftArm 53.664654 -43.504383 -68.050810
LeftForeArm 39.591182 0.000000 8.110939
LeftHand -16.927661 0.000000 -4.864591
LeftHandThumb1 -26.253704 0.000000 33.147579
Head -1.671397 19.784781 -10.022461
86
root 1.615287 37.151113 3.190745 -5.120246 4.811247 4.733657
RightUpLeg 14.844595 -2.345926 -9.090529
RightLeg -8.025110 -0.000000 0.000000
RightFoot -12.433411 -22.971286 19.593847
RightToeBase 10.961569 -0.000000 -0.000000
LeftUpLeg -8.693622 9.496776 2.478003
LeftLeg 32.447179 -0.000000 -0.000000
LeftFoot -2.389534 -8.462682 -33.953092
LeftToeBase 5.780865 -0.000000 -0.000000
Spine 15.789822 -7.314822 5.962355
RightShoulder -4.794311 -12.281299 -28.977833
RightArm 7.351734 30.202814 32.506750
RightForeArm 9.470283 -0.000000 21.522148
RightHand 4.983620 -0.000000 -5.711141
RightHandThumb1 -24.326973 -0.000000 -32.862282
LeftShoulder -23.919618 33.862494 10.491335
LeftArm 53.751273 -43.288931 -68.123319
LeftForeArm 39.684256 -0.000000 8.109352
LeftHand -16.846127 -0.000000 -4.921955
LeftHandThumb1 -26.253704 0.000000 33.147579
Head -1.349477 19.856297 -9.969855
87
root 1.648752 37.147484 3.183091 -5.213958 5.109639 4.832758
RightUpLeg 14.997329 -2.549335 -9.287819
RightLeg -7.971007 -0.000000 0.000000
RightFoot -12.512906 -22.888740 19.672410
RightToeBase 10.932434 -0.000000 -0.000000
LeftUpLeg -8.860186 9.349793 2.723621
LeftLeg 32.878902 -0.000000 -0.000000
LeftFoot -1.588316 -9.887643 -34.958138
LeftToeBase 4.954276 -0.000000 -0.000000
Spine 15.961646 -7.506347 5.985138
RightShoulder -4.808343 -12.491172 -28.841752
RightArm 7.622793 30.084599 32.915512
RightForeArm 9.496188 -0.000000 21.634365
RightHand 5.108926 -0.000000 -6.012325
RightHandThumb1 -24.326973 -0.000000 -32.862282
LeftShoulder -23.893439 33.884895 10.441700
LeftArm 53.874583 -43.084918 -68.220315
LeftForeArm 39.709629 -0.000000 8.106958
LeftHand -16.906544 -0.000000 -5.055895
LeftHandThumb1 -26.253704 0.000000 33.147579
Head -1.019048 19.912066 -9.864699
88
root 1.689333 37.143354 3.180129 -5.313745 5.392827 4.932198
RightUpLeg 15.283827 -2.378642 -9.409970
RightLeg -8.175813 -0.000000 0.000000
RightFoot -12.560511 -23.253191 19.790091
RightToeBase 10.905306 -0.000000 -0.000000
LeftUpLeg -8.950940 9.163990 2.953176
LeftLeg 33.206056 -0.000000 -0.000000
LeftFoot -1.465178 -11.069717 -34.851193
LeftToeBase 4.708076 -0.000000 -0.000000
Spine 16.117680 -7.678592 6.024119
RightShoulder -4.871061 -12.696107 -28.736589
RightArm 7.948672 30.005941 33.405789
RightForeArm 9.376839 -0.000000 21.763312
RightHand 5.245804 -0.000000 -6.064338
RightHandThumb1 -24.326973 -0.000000 -32.862282
LeftShoulder -23.855734 33.924400 10.352741
LeftArm 53.979841 -42.880685 -68.236896
LeftForeArm 39.725416 -0.000000 8.079054
LeftHand -16.853420 -0.000000 -4.998844
LeftHandThumb1 -26.253704 0.000000 33.147579
Head -0.688951 19.957202 -9.814711
89
root 1.730006 37.139200 3.177607 -5.416716 5.685125 5.025770
RightUpLeg 15.489689 -2.383088 -9.566127
RightLeg -8.198342 -0.000000 0.000000
RightFoot -12.651560 -23.401810 19.898404
RightToeBase 10.856513 -0.000000 -0.000000
LeftUpLeg -9.006613 8.932213 3.192225
LeftLeg 33.468268 -0.000000 -0.000000
LeftFoot -1.800840 -11.735532 -34.539117
LeftToeBase 4.708457 -0.000000 -0.000000
Spine 16.281722 -7.865650 6.043816
RightShoulder -4.892541 -12.801715 -28.586477
RightArm 8.148698 29.893859 33.804825
RightForeArm 9.257863 0.000000 21.960795
RightHand 5.276527 -0.000000 -6.015964
RightHandThumb1 -24.326973 -0.000000 -32.862282
LeftShoulder -23.784577 33.925028 10.329044
LeftArm 53.960373 -42.666865 -68.201528
LeftForeArm 39.666969 -0.000000 8.105487
LeftHand -16.845543 -0.000000 -5.033706
LeftHandThumb1 -26.253704 0.000000 33.147579
Head -0.393304 19.951366 -9.747838
90
root 1.768812 37.134669 3.180729 -5.518649 5.953312 5.076986
RightUpLeg 15.691618 -2.332125 -9.664910
RightLeg -8.217028 -0.000000 0.000000
RightFoot -12.774959 -23.584936 20.033754
RightToeBase 10.875017 -0.000000 -0.000000
LeftUpLeg -8.999557 8.724169 3.505420
LeftLeg 33.574950 -0.000000 -0.000000
LeftFoot -2.281466 -11.760585 -34.478892
LeftToeBase 4.418634 -0.000000 -0.000000
Spine 16.425375 -8.046576 6.090847
RightShoulder -4.901610 -12.899140 -28.408429
RightArm 8.322187 29.722670 34.157376
RightForeArm 9.125824 0.000000 22.182381
RightHand 5.274825 -0.000000 -5.966710
RightHandThumb1 -24.326973 -0.000000 -32.862282
LeftShoulder -23.733279 33.957451 10.307847
LeftArm 53.934366 -42.462318 -68.190517
LeftForeArm 39.585903 -0.000000 8.193680
LeftHand -16.834476 -0.000000 -5.138737
LeftHandThumb1 -26.253704 0.000000 33.147579
Head -0.090153 19.974349 -9.639479
91
root 1.812718 37.130363 3.185418 -5.618140 6.244918 5.146362
RightUpLeg 15.890537 -2.331185 -9.796092
RightLeg -8.213429 -0.000000 0.000000
RightFoot -12.873764 -23.742712 20.142434
RightToeBase 10.793377 -0.000000 -0.000000
LeftUpLeg -8.949511 8.436150 3.805978
LeftLeg 33.560934 -0.000000 -0.000000
LeftFoot -3.067590 -11.116285 -34.285447
LeftToeBase 3.990522 -0.000000 -0.000000
Spine 16.556927 -8.241852 6.108586
RightShoulder -4.957296 -13.085923 -28.199155
RightArm 8.618073 29.651228 34.582124
RightForeArm 8.916626 -0.000000 22.402870
RightHand 5.187024 -0.000000 -5.936047
RightHandThumb1 -24.326973 -0.000000 -32.862282
LeftShoulder -23.656197 33.970964 10.298948
LeftArm 53.885014 -42.269929 -68.140444
LeftForeArm 39.524504 -0.000000 8.231173
LeftHand -16.800243 -0.000000 -5.018588
LeftHandThumb1 -26.253704 0.000000 33.147579
Head 0.191053 19.967823 -9.589056
92
root 1.854510 37.127151 3.193605 -5.693929 6.458893 5.180084
RightUpLeg 16.021556 -2.279004 -9.877111
RightLeg -8.158813 -0.000000 0.000000
RightFoot -12.994393 -23.890489 20.260984
RightToeBase 10.811674 -0.000000 -0.000000
LeftUpLeg -8.870128 8.273465 4.174760
LeftLeg 33.449626 -0.000000 -0.000000
LeftFoot -4.182744 -10.226941 -33.813684
LeftToeBase 3.974686 -0.000000 -0.000000
Spine 16.647295 -8.358983 6.169971
RightShoulder -4.986359 -13.331791 -27.984730
RightArm 8.876395 29.537917 34.982570
RightForeArm 8.724437 -0.000000 22.647668
RightHand 5.252324 -0.000000 -5.955679
RightHandThumb1 -24.326973 -0.000000 -32.862282
LeftShoulder -23.640663 34.080060 10.245274
LeftArm 53.989674 -42.086895 -68.227617
LeftForeArm 39.444854 -0.000000 8.276149
LeftHand -16.668487 0.000000 -5.035945
LeftHandThumb1 -26.253704 0.000000 33.147579
Head 0.466152 19.926805 -9.523522
